<?xml version="1.0" encoding="UTF-8"?>
<svg version="1.1" xmlns="http://www.w3.org/2000/svg" width="58" height="68">
<path d="M0 0 C3.96 0 7.92 0 12 0 C9.69059037 8.01520422 6.9706883 15.82913528 4.11328125 23.6640625 C3.64650205 24.95005674 3.17996896 26.23614033 2.71366882 27.52230835 C1.49795585 30.87351084 0.27894948 34.22350565 -0.9407959 37.57324219 C-2.18977331 41.00512258 -3.43556433 44.43815918 -4.68164062 47.87109375 C-7.11801323 54.58185128 -9.55816875 61.29122639 -12 68 C-15.96 68 -19.92 68 -24 68 C-22.51648289 60.25366005 -20.00164776 53.10194966 -17.24609375 45.72265625 C-16.78004717 44.46253232 -16.31448456 43.20222931 -15.84938049 41.9417572 C-14.63352097 38.6510738 -13.41053508 35.36308319 -12.18615723 32.07556152 C-11.18475322 29.38289017 -10.18860539 26.68828882 -9.19268703 23.99358463 C-7.13716993 18.43255907 -5.07771025 12.87297503 -3.00952148 7.31665039 C-2.64471176 6.33563858 -2.27990204 5.35462677 -1.90403748 4.34388733 C-1 2 -1 2 0 0 Z " fill="#8E55C4" transform="translate(24,0)"/>
<path d="M0 0 C0.85078125 0.23203125 1.7015625 0.4640625 2.578125 0.703125 C1.09158994 4.16942335 -0.87909851 6.39334536 -3.5546875 9.03125 C-4.76318359 10.23007812 -4.76318359 10.23007812 -5.99609375 11.453125 C-7.25873047 12.690625 -7.25873047 12.690625 -8.546875 13.953125 C-9.39636719 14.79359375 -10.24585937 15.6340625 -11.12109375 16.5 C-13.21692423 18.57228183 -15.31728213 20.63974893 -17.421875 22.703125 C-15.93769324 26.16833277 -13.9745023 28.37146185 -11.2890625 30.99609375 C-10.48339844 31.79080078 -9.67773438 32.58550781 -8.84765625 33.40429688 C-7.58501953 34.6350293 -7.58501953 34.6350293 -6.296875 35.890625 C-4.62547918 37.5277813 -2.95608839 39.166988 -1.2890625 40.80859375 C-0.17700439 41.89370239 -0.17700439 41.89370239 0.95751953 43.00073242 C2.578125 44.703125 2.578125 44.703125 2.578125 45.703125 C-2.99842961 47.19388712 -7.98917939 47.80980708 -13.421875 45.703125 C-21.38676685 39.8794963 -27.98244725 32.11936209 -34.421875 24.703125 C-28.73715162 11.75510429 -14.6390535 -2.18028456 0 0 Z " fill="#8E55C4" transform="translate(55.421875,22.296875)"/>
</svg>
